<svg width="101" height="15" viewBox="0 0 101 15" fill="none" xmlns="http://www.w3.org/2000/svg">
<path fill-rule="evenodd" clip-rule="evenodd" d="M14.2883 5.74055C14.1965 5.45627 13.9443 5.25384 13.6468 5.22553L9.56846 4.85249L7.96284 1.08853C7.84504 0.812147 7.57363 0.632812 7.27325 0.632812C6.97275 0.632812 6.70135 0.812147 6.58354 1.08853L4.97423 4.85249L0.901446 5.2191C0.599274 5.24388 0.341739 5.44794 0.248548 5.73641C0.155357 6.02482 0.244744 6.34103 0.475205 6.53793L3.55365 9.2369L2.64635 13.2337C2.57967 13.5263 2.6939 13.8304 2.93678 14.0068C3.17954 14.1831 3.50409 14.1977 3.76174 14.0439L7.27728 11.9451L10.7874 14.0448C11.0452 14.1983 11.3696 14.1836 11.6124 14.0073C11.8552 13.8311 11.9697 13.5272 11.9037 13.2346L10.9964 9.23785L14.0748 6.53883C14.3009 6.34087 14.387 6.02717 14.2938 5.7415L14.2883 5.74055Z" fill="url(#paint0_linear_1_141)"/>
<path fill-rule="evenodd" clip-rule="evenodd" d="M35.92 5.74055C35.8282 5.45627 35.576 5.25384 35.2785 5.22553L31.2002 4.85249L29.5945 1.08853C29.4767 0.812147 29.2053 0.632812 28.905 0.632812C28.6045 0.632812 28.333 0.812147 28.2152 1.08853L26.6059 4.85249L22.5331 5.2191C22.231 5.24388 21.9734 5.44794 21.8802 5.73641C21.7871 6.02482 21.8764 6.34103 22.1069 6.53793L25.1854 9.2369L24.2781 13.2337C24.2114 13.5263 24.3256 13.8304 24.5685 14.0068C24.8112 14.1831 25.1358 14.1977 25.3934 14.0439L28.909 11.9451L32.4191 14.0448C32.6769 14.1983 33.0013 14.1836 33.2441 14.0073C33.4869 13.8311 33.6014 13.5272 33.5354 13.2346L32.6281 9.23785L35.7065 6.53883C35.9326 6.34087 36.0187 6.02717 35.9255 5.7415L35.92 5.74055Z" fill="url(#paint1_linear_1_141)"/>
<path fill-rule="evenodd" clip-rule="evenodd" d="M57.5519 5.74055C57.46 5.45627 57.2078 5.25384 56.9104 5.22553L52.832 4.85249L51.2264 1.08853C51.1086 0.812147 50.8372 0.632812 50.5368 0.632812C50.2363 0.632812 49.9649 0.812147 49.8471 1.08853L48.2378 4.85249L44.165 5.2191C43.8628 5.24388 43.6053 5.44794 43.5121 5.73641C43.4189 6.02482 43.5083 6.34103 43.7387 6.53793L46.8172 9.2369L45.9099 13.2337C45.8432 13.5263 45.9574 13.8304 46.2003 14.0068C46.4431 14.1831 46.7676 14.1977 47.0253 14.0439L50.5408 11.9451L54.051 14.0448C54.3087 14.1983 54.6332 14.1836 54.8759 14.0073C55.1187 13.8311 55.2333 13.5272 55.1673 13.2346L54.26 9.23785L57.3383 6.53883C57.5644 6.34087 57.6505 6.02717 57.5573 5.7415L57.5519 5.74055Z" fill="url(#paint2_linear_1_141)"/>
<path fill-rule="evenodd" clip-rule="evenodd" d="M100.815 5.74055C100.723 5.45627 100.471 5.25384 100.174 5.22553L96.0954 4.85249L94.4898 1.08853C94.372 0.812147 94.1006 0.632812 93.8002 0.632812C93.4997 0.632812 93.2283 0.812147 93.1105 1.08853L91.5012 4.85249L87.4284 5.2191C87.1263 5.24388 86.8687 5.44794 86.7755 5.73641C86.6823 6.02482 86.7717 6.34103 87.0022 6.53793L90.0806 9.2369L89.1733 13.2337C89.1067 13.5263 89.2209 13.8304 89.4638 14.0068C89.7065 14.1831 90.0311 14.1977 90.2887 14.0439L93.8043 11.9451L97.3144 14.0448C97.5722 14.1983 97.8966 14.1836 98.1394 14.0073C98.3822 13.8311 98.4967 13.5272 98.4307 13.2346L97.5234 9.23785L100.602 6.53883C100.828 6.34087 100.914 6.02717 100.821 5.7415L100.815 5.74055Z" fill="url(#paint3_linear_1_141)"/>
<path fill-rule="evenodd" clip-rule="evenodd" d="M79.1837 5.74055C79.0918 5.45627 78.8397 5.25384 78.5422 5.22553L74.4638 4.85249L72.8582 1.08853C72.7404 0.812147 72.469 0.632812 72.1686 0.632812C71.8681 0.632812 71.5967 0.812147 71.4789 1.08853L69.8696 4.85249L65.7968 5.2191C65.4946 5.24388 65.2371 5.44794 65.1439 5.73641C65.0507 6.02482 65.1401 6.34103 65.3705 6.53793L68.449 9.2369L67.5417 13.2337C67.475 13.5263 67.5892 13.8304 67.8321 14.0068C68.0749 14.1831 68.3994 14.1977 68.6571 14.0439L72.1726 11.9451L75.6828 14.0448C75.9405 14.1983 76.265 14.1836 76.5078 14.0073C76.7505 13.8311 76.8651 13.5272 76.7991 13.2346L75.8918 9.23785L78.9701 6.53883C79.1962 6.34087 79.2824 6.02717 79.1892 5.7415L79.1837 5.74055Z" fill="url(#paint4_linear_1_141)"/>
<defs>
<linearGradient id="paint0_linear_1_141" x1="7.27152" y1="0.632812" x2="7.27152" y2="14.1505" gradientUnits="userSpaceOnUse">
<stop stop-color="#FFD056"/>
<stop offset="0.744792" stop-color="#F8C14F"/>
<stop offset="1" stop-color="#F7B73B"/>
</linearGradient>
<linearGradient id="paint1_linear_1_141" x1="28.9032" y1="0.632812" x2="28.9032" y2="14.1505" gradientUnits="userSpaceOnUse">
<stop stop-color="#FFD056"/>
<stop offset="0.744792" stop-color="#F8C14F"/>
<stop offset="1" stop-color="#F7B73B"/>
</linearGradient>
<linearGradient id="paint2_linear_1_141" x1="50.535" y1="0.632812" x2="50.535" y2="14.1505" gradientUnits="userSpaceOnUse">
<stop stop-color="#FFD056"/>
<stop offset="0.744792" stop-color="#F8C14F"/>
<stop offset="1" stop-color="#F7B73B"/>
</linearGradient>
<linearGradient id="paint3_linear_1_141" x1="93.7985" y1="0.632812" x2="93.7985" y2="14.1505" gradientUnits="userSpaceOnUse">
<stop stop-color="#FFD056"/>
<stop offset="0.744792" stop-color="#F8C14F"/>
<stop offset="1" stop-color="#F7B73B"/>
</linearGradient>
<linearGradient id="paint4_linear_1_141" x1="72.1669" y1="0.632812" x2="72.1669" y2="14.1505" gradientUnits="userSpaceOnUse">
<stop stop-color="#FFD056"/>
<stop offset="0.744792" stop-color="#F8C14F"/>
<stop offset="1" stop-color="#F7B73B"/>
</linearGradient>
</defs>
</svg>
